# xmcd
#
# Track frame offsets: 
#        150
#        16264
#        28806
#        38337
#        56281
#        69665
#        81585
#        99024
#        116533
#        127372
#        140224
#        151880
#
# Disc length: 2198 seconds
#
# Revision: 0
# Processed by: cddbd v1.5.2PL0 Copyright (c) Steve Scherf et al.
# Submitted via: ExactAudioCopyFreeDBPlugin 1.0
#
DISCID=9d08940c
DTITLE=Johnny Bremner - A Touch of Irish
DYEAR=1900
DGENRE=Country
TTITLE0=Donegal Were Coming Home
TTITLE1=The Wicklow Hills
TTITLE2=Oh The Pain Of Loving You
TTITLE3=Your Wedding Day
TTITLE4=The Green Green Grass Of Home
TTITLE5=Ride Me Down Easy
TTITLE6=A Bunch Of Violets Blue
TTITLE7=Roselare Harbor
TTITLE8=The Same Way You Came In
TTITLE9=Noreen Bawn
TTITLE10=Where The Three Counties Meet
TTITLE11=The Rose Of Castle Ree
EXTD=
EXTT0=
EXTT1=
EXTT2=
EXTT3=
EXTT4=
EXTT5=
EXTT6=
EXTT7=
EXTT8=
EXTT9=
EXTT10=
EXTT11=
PLAYORDER=
